<?xml version="1.0" encoding="UTF-8" standalone="no"?>
<!-- Created with Inkscape (http://www.inkscape.org/) -->

<svg
   version="1.1"
   id="svg1"
   width="655.35999"
   height="317.44"
   viewBox="0 0 655.35999 317.44"
   sodipodi:docname="afternoon.png"
   inkscape:export-filename="luna1.svg"
   inkscape:export-xdpi="96"
   inkscape:export-ydpi="96"
   xml:space="preserve"
   xmlns:inkscape="http://www.inkscape.org/namespaces/inkscape"
   xmlns:sodipodi="http://sodipodi.sourceforge.net/DTD/sodipodi-0.dtd"
   xmlns="http://www.w3.org/2000/svg"
   xmlns:svg="http://www.w3.org/2000/svg"><defs
     id="defs1" /><sodipodi:namedview
     id="namedview1"
     pagecolor="#ffffff"
     bordercolor="#000000"
     borderopacity="0.25"
     inkscape:showpageshadow="2"
     inkscape:pageopacity="0.0"
     inkscape:pagecheckerboard="0"
     inkscape:deskcolor="#d1d1d1"
     showguides="false" /><g
     inkscape:groupmode="layer"
     inkscape:label="Image"
     id="g1"><rect
       style="fill:#285c72;fill-opacity:1;fill-rule:evenodd;stroke-width:1.90717"
       id="rect6"
       width="655.0874"
       height="316.83228"
       x="-2.9426471e-06"
       y="1.1275187"
       ry="0" /><path
       d="m 430.43851,249.92281 c 12.94257,-1.75036 25.13504,-5.54434 36.32,-11.30183 4.54362,-2.33884 10.83541,-6.14053 13.73953,-8.30183 0.80326,-0.5978 2.08331,-1.5484 2.84457,-2.11244 2.73887,-2.02933 6.67663,-5.46267 9.92576,-8.65427 l 3.30987,-3.25127 -5.06987,-0.23396 c -12.20594,-0.56327 -22.40577,-2.31223 -32.58986,-5.58816 -28.59759,-9.19903 -52.68984,-28.19595 -68.71687,-54.18376 -4.84494,-7.85607 -8.66859,-16.01338 -11.60625,-24.76056 -4.67207,-13.91158 -6.47768,-25.61478 -6.12713,-39.713554 0.30415,-12.2326 1.94752,-21.63685 5.6951,-32.59032 l 1.2968,-3.79031 -0.77456,-0.84969 c -1.00142,-1.09855 -2.74665,-3.62308 -3.90569,-5.64968 -0.50328,-0.88 -0.95251,-1.64653 -0.99829,-1.70339 -0.15665,-0.1946 -5.74036,2.30681 -9.94037,4.45311 -18.12871,9.26419 -32.63085,22.63327 -43.18432,39.81028 -4.41296,7.182606 -8.56922,16.821754 -10.96937,25.439994 -2.5522,9.16424 -3.53257,15.89406 -3.7759,25.92 -0.14605,6.01799 -0.067,8.12551 0.48169,12.83756 1.43135,12.2928 4.8862,24.00812 10.27048,34.82698 2.5322,5.08806 3.63153,6.94499 7.40939,12.5156 12.50489,18.43897 30.432,32.4384 52.00187,40.60869 7.79875,2.95403 18.04492,5.46613 26.20342,6.42441 7.94221,0.93287 20.64692,0.86448 28.16,-0.1516 z"
       style="fill:#ac9d93"
       id="path1" /><path
       style="fill:#fefce7;fill-opacity:1;stroke-width:1.12752"
       d="m 393.63082,248.00341 c -10.69836,-2.32098 -17.71817,-4.79743 -27.68379,-9.76628 -11.38792,-5.67802 -17.01471,-9.56952 -26.02808,-18.00107 -31.23009,-29.21423 -41.61014,-73.24314 -26.47876,-112.31461 6.86099,-17.716119 21.12939,-36.029778 36.65384,-47.045665 6.21611,-4.410843 23.11853,-13.573021 23.51534,-12.746799 0.0936,0.194835 1.27934,1.941173 2.63502,3.880752 l 2.46489,3.526508 -2.13557,7.184904 c -17.97505,60.47504 18.53037,126.90312 81.25741,147.86225 7.7417,2.58676 14.84507,3.95997 30.9475,5.98274 l 5.63759,0.70819 -6.47901,6.03483 c -11.84697,11.0348 -30.14693,20.27453 -47.95384,24.21212 -11.84544,2.61936 -35.37313,2.86408 -46.35254,0.48213 z"
       id="path6" /></g></svg>
