<?xml version="1.0" encoding="UTF-8" standalone="no"?>
<!-- Created with Inkscape (http://www.inkscape.org/) -->

<svg
   version="1.1"
   id="svg1"
   width="655.35999"
   height="338.88"
   viewBox="0 0 655.35999 338.88"
   sodipodi:docname="morningp.png"
   xml:space="preserve"
   xmlns:inkscape="http://www.inkscape.org/namespaces/inkscape"
   xmlns:sodipodi="http://sodipodi.sourceforge.net/DTD/sodipodi-0.dtd"
   xmlns="http://www.w3.org/2000/svg"
   xmlns:svg="http://www.w3.org/2000/svg"><defs
     id="defs1" /><sodipodi:namedview
     id="namedview1"
     pagecolor="#ffffff"
     bordercolor="#000000"
     borderopacity="0.25"
     inkscape:showpageshadow="2"
     inkscape:pageopacity="0.0"
     inkscape:pagecheckerboard="0"
     inkscape:deskcolor="#d1d1d1"
     showgrid="false" /><g
     inkscape:groupmode="layer"
     inkscape:label="Image"
     id="g1"><path
       d="m 281.19212,245.00582 c -2.51988,-0.82631 -4.99153,-2.0059 -8.16,-3.89433 -0.704,-0.41959 -1.85988,-1.03754 -2.56863,-1.37322 -0.70874,-0.33568 -1.63384,-0.9778 -2.05578,-1.42693 -0.42193,-0.44913 -0.97386,-0.8166 -1.2265,-0.8166 -0.25265,0 -1.21065,-0.68664 -2.12889,-1.52586 -1.58773,-1.4511 -4.60471,-3.27414 -5.41842,-3.27414 -0.20853,0 -0.84324,0.42388 -1.41046,0.94196 -0.74398,0.67952 -1.03875,1.23675 -1.05799,2 -0.0147,0.58192 -0.0812,1.34604 -0.14777,1.69804 -0.0666,0.352 -0.18446,1.02271 -0.26191,1.49046 -0.0774,0.46775 -0.4286,1.25975 -0.78035,1.76 -0.36829,0.52378 -0.72431,1.70874 -0.83942,2.7939 m 131.19755,41.11526 c 0.50585,-0.97821 0.5019,-1.85719 -0.0214,-4.75977 -0.44066,-2.44429 -1.18977,-5.23108 -1.77002,-6.58474 -0.33588,-0.78357 -0.66721,-2.42238 -0.7363,-3.6418 -0.10315,-1.82047 -0.27657,-2.39651 -0.96936,-3.21984 -0.67516,-0.80239 -0.84373,-1.33552 -0.84373,-2.66843 0,-0.91614 -0.22801,-2.4531 -0.50668,-3.41545 -0.27867,-0.96236 -0.67605,-2.82974 -0.88305,-4.14974 -0.20701,-1.32 -0.5598,-2.72349 -0.78398,-3.11887 -0.22418,-0.39538 -0.54971,-1.54738 -0.72338,-2.56 -0.42721,-2.49083 -0.98476,-4.64614 -1.31253,-5.07388 -0.14868,-0.19401 -0.36288,-1.27401 -0.47602,-2.4 -0.11313,-1.12599 -0.48593,-2.76725 -0.82845,-3.64725 -0.34251,-0.88 -0.74965,-2.3759 -0.90475,-3.32422 -0.1551,-0.94832 -0.52463,-1.99232 -0.82118,-2.32 -1.15094,-1.27178 -4.14097,-0.38361 -6.15361,1.8279 -0.70894,0.77897 -1.44014,1.41632 -1.6249,1.41632 -0.18477,0 -0.97603,0.4886 -1.75837,1.08577 -0.78233,0.59717 -2.11558,1.34118 -2.96276,1.65335 -0.84719,0.31217 -1.82834,0.81502 -2.18034,1.11745 -0.352,0.30243 -1,0.65497 -1.44,0.78343 -0.44,0.12846 -1.088,0.48984 -1.44,0.80308 -0.80049,0.71233 -3.05672,1.91692 -3.59046,1.91692 -0.21996,0 -1.08609,0.41382 -1.92473,0.9196 -0.83865,0.50577 -1.9026,1.00795 -2.36435,1.11594 -2.82882,0.66159 -2.86265,2.63635 -0.0915,5.34296 0.98066,0.95783 2.13133,2.07205 2.55704,2.47605 0.42572,0.404 0.77403,0.87109 0.77403,1.03799 0,0.1669 0.612,0.74635 1.36,1.28768 1.88974,1.36761 4.03291,3.30733 8.99351,8.13978 2.34867,2.288 5.38365,5.168 6.7444,6.4 3.17666,2.8761 5.30209,5.01813 5.30209,5.34349 0,0.14108 0.20259,0.25651 0.4502,0.25651 0.24761,0 1.05302,0.72 1.7898,1.6 0.73678,0.88 1.51587,1.6 1.73131,1.6 0.43083,0 3.64757,3.47413 4.24174,4.58115 0.33655,0.62702 1.18894,1.05986 2.25873,1.14695 0.21548,0.0175 0.62454,-0.4182 0.90902,-0.96833 z m -60.9808,-39.16025 c 1.672,-0.13158 3.688,-0.43575 4.48,-0.67592 0.792,-0.24017 1.81459,-0.43823 2.27241,-0.44013 1.18263,-0.005 8.06669,-1.7928 9.24078,-2.39995 0.54051,-0.27951 1.80716,-0.65769 2.81477,-0.8404 1.00762,-0.18272 2.16844,-0.54861 2.57959,-0.81309 0.41116,-0.26449 1.44897,-0.68919 2.30625,-0.94377 0.85729,-0.25459 1.64298,-0.59925 1.74599,-0.76592 0.103,-0.16666 1.41091,-0.91892 2.90646,-1.67168 1.49554,-0.75276 3.25345,-1.6385 3.90646,-1.9683 1.02977,-0.52008 1.61095,-0.92559 3.46219,-2.41567 0.1952,-0.15712 0.96725,-0.59806 1.71568,-0.97988 0.74842,-0.38182 1.85682,-1.1511 2.4631,-1.70951 0.60628,-0.55842 1.52085,-1.24631 2.03237,-1.52866 0.51152,-0.28235 1.34397,-0.93035 1.84987,-1.44 0.50591,-0.50965 2.20329,-2.16502 3.77196,-3.6786 1.56866,-1.51358 3.71612,-3.72283 4.77212,-4.90945 1.056,-1.18662 2.46,-2.7376 3.12,-3.44663 0.66,-0.70902 1.2,-1.50167 1.2,-1.76144 0,-0.25977 0.56127,-1.10995 1.24727,-1.88929 0.68601,-0.77934 1.50056,-1.95344 1.81012,-2.60911 0.30956,-0.65566 0.83021,-1.38163 1.157,-1.61327 0.66017,-0.46792 1.86561,-2.65287 1.86561,-3.38155 0,-0.25751 0.36,-0.89603 0.8,-1.41894 0.44,-0.52291 0.8,-1.08177 0.8,-1.2419 0,-0.16014 0.42406,-0.95984 0.94237,-1.77712 0.5183,-0.81728 1.04276,-2.02112 1.16547,-2.6752 0.1227,-0.65408 0.92264,-2.68354 1.77763,-4.50991 1.31755,-2.81445 1.55453,-3.61329 1.55453,-5.2402 0,-1.3038 0.21048,-2.3321 0.65617,-3.20574 0.36165,-0.70888 0.78806,-2.44256 0.95,-3.86241 0.1616,-1.41691 0.43364,-2.74467 0.60453,-2.95058 0.48095,-0.5795 0.98263,-7.45432 0.98334,-13.4753 6.3e-4,-5.3586 -0.63076,-12.00603 -1.21036,-12.74301 -0.16307,-0.20735 -0.38722,-1.40069 -0.49813,-2.65189 -0.1109,-1.25119 -0.49558,-2.93941 -0.85485,-3.75159 -0.35927,-0.81218 -0.7346,-2.45248 -0.83408,-3.6451 -0.11805,-1.41527 -0.40291,-2.48432 -0.82016,-3.07795 -0.35162,-0.50025 -0.68019,-1.22025 -0.73016,-1.6 -0.12925,-0.98226 -0.50566,-1.85371 -1.18077,-2.73361 -0.32204,-0.41974 -0.58553,-0.98436 -0.58553,-1.25472 0,-0.4711 -1.19619,-3.20732 -2.64091,-6.04096 -0.37542,-0.73635 -0.9428,-1.40687 -1.26084,-1.49004 -0.3748,-0.098 -0.57825,-0.45063 -0.57825,-1.00221 0,-0.84072 -0.50968,-2.09842 -0.97622,-2.40892 -0.13222,-0.088 -1.4881,-2.032 -3.01307,-4.32 -1.52497,-2.288 -3.1292,-4.52 -3.56496,-4.96 -0.43577,-0.44 -2.7102,-2.75925 -5.0543,-5.15388 -4.55656,-4.6548 -8.26615,-7.96612 -8.92423,-7.96612 -0.22229,0 -1.40835,-0.78189 -2.63569,-1.73753 -1.22734,-0.95565 -2.61583,-2.036911 -3.08552,-2.402801 -0.4697,-0.3659 -1.3337,-0.75442 -1.92,-0.86339 -0.58631,-0.10896 -1.39226,-0.53584 -1.79101,-0.94862 -0.39875,-0.41278 -2.27075,-1.48642 -4.16,-2.38588 -1.88925,-0.89945 -4.15707,-1.98331 -5.03959,-2.40857 -0.88253,-0.42527 -1.99853,-0.77321 -2.48,-0.77321 -0.48148,0 -1.14157,-0.26616 -1.46688,-0.59146 -0.4202,-0.42021 -1.30529,-0.65615 -3.05672,-0.81486 -1.42733,-0.12935 -2.91012,-0.47326 -3.52187,-0.81687 -0.61818,-0.34721 -2.10505,-0.68893 -3.58328,-0.82354 -1.38966,-0.12655 -2.71689,-0.38292 -2.9494,-0.56973 -1.77307,-1.42457 -25.26926,-1.55484 -26.38809,-0.14631 -0.26882,0.33843 -1.19042,0.54029 -2.98003,0.65273 -1.62576,0.10215 -2.99657,0.38068 -3.68,0.74774 -0.61554,0.33059 -2.13275,0.67163 -3.48914,0.78428 -1.85113,0.15375 -3.19897,0.53994 -5.8936,1.68868 -1.92148,0.81913 -3.73768,1.48934 -4.036,1.48934 -0.29832,0 -1.086,0.432 -1.7504,0.96 -0.6644,0.528 -1.4402,0.96034 -1.724,0.96075 -0.2838,4.1e-4 -1.02,0.43208 -1.636,0.95925 -0.616,0.52717 -1.30411,0.95884 -1.52913,0.95925 -0.52024,9.5e-4 -4.13372,1.81595 -4.28065,2.1501 -0.15283,0.34755 -2.74492,2.010651 -3.13378,2.010651 -0.1745,0 -0.63667,0.432 -1.02704,0.96 -0.39037,0.528 -0.97802,0.96 -1.30589,0.96 -0.32788,0 -1.0568,0.48943 -1.61982,1.08763 -0.56303,0.5982 -1.48742,1.31969 -2.0542,1.60332 -0.56679,0.28362 -1.19706,0.82685 -1.4006,1.20718 -0.20355,0.38033 -0.74782,1.01474 -1.20949,1.40981 -2.15498,1.84408 -6.39594,6.21103 -6.57271,6.76797 -0.10851,0.34189 -0.55252,0.81173 -0.98669,1.04409 -0.43417,0.23236 -0.87908,0.72341 -0.9887,1.09124 -0.10962,0.36782 -0.825,1.31676 -1.58974,2.10876 -0.76474,0.792 -1.82026,2.24808 -2.3456,3.23574 -0.52535,0.98766 -1.28835,2.30322 -1.69557,2.92348 -1.19208,1.81572 -1.96271,3.19767 -2.50028,4.48367 -0.27656,0.6616 -0.74972,1.49124 -1.05147,1.84366 -0.30175,0.35242 -0.54864,0.79689 -0.54864,0.98771 0,0.19082 -0.26286,0.72917 -0.58413,1.19634 -0.32127,0.46717 -0.76605,1.3534 -0.98841,1.9694 -0.22235,0.616 -0.61637,1.51724 -0.87559,2.00276 -0.25922,0.48551 -0.60757,1.63751 -0.77411,2.56 -0.37177,2.05929 -0.37183,2.05951 -1.00346,3.43724 -0.28241,0.616 -0.60026,1.83219 -0.70635,2.70264 -0.10608,0.87045 -0.34291,1.67536 -0.52629,1.7887 -0.45238,0.27958 -1.26166,3.05014 -1.26166,4.31929 0,0.5659 -0.20115,1.59902 -0.44699,2.29582 -1.47084,4.1688 -1.49575,22.23729 -0.0365,26.49355 0.24136,0.704 0.52386,2.36 0.62779,3.68 0.19175,2.43562 1.18307,5.6427 2.59651,8.40017 0.42857,0.83609 0.77922,1.9135 0.77922,2.39424 0,1.33848 1.65496,5.95234 2.30415,6.42374 0.31672,0.22998 0.57585,0.60298 0.57585,0.82888 0,0.22591 0.41202,1.26175 0.9156,2.30186 0.50358,1.04011 1.09705,2.35911 1.31882,2.93111 0.22178,0.572 0.50308,1.04 0.62514,1.04 0.12205,0 0.46369,0.468 0.7592,1.04 0.85185,1.64886 3.06184,4.80456 4.2207,6.02685 0.2643,0.27876 0.48054,0.65998 0.48054,0.84716 0,0.67098 2.80887,3.80937 8.07624,9.02369 5.86861,5.80951 8.29406,8.0223 8.79328,8.0223 0.17927,0 1.46096,0.88336 2.84821,1.96301 1.38725,1.07966 3.17027,2.25404 3.96227,2.60974 0.792,0.3557 1.584,0.84203 1.76,1.08073 0.176,0.2387 0.608,0.49089 0.96,0.56042 0.352,0.0695 1.48262,0.57185 2.51249,1.11626 1.02988,0.54441 2.05156,0.98984 2.27041,0.98984 0.21885,0 0.65854,0.288 0.9771,0.64 0.31856,0.352 0.72558,0.64 0.90449,0.64 0.17891,0 1.20059,0.34384 2.2704,0.76408 1.06981,0.42025 2.61253,0.85859 3.42826,0.97408 0.84951,0.12029 1.72514,0.47741 2.04959,0.83592 0.31155,0.34426 0.88159,0.62592 1.26676,0.62592 0.38517,0 1.50634,0.27732 2.49149,0.61626 0.98515,0.33894 3.20369,0.78481 4.93009,0.99083 1.72641,0.20602 3.28292,0.46541 3.45892,0.57643 0.63424,0.40007 4.27716,0.7036 10.56,0.87987 3.52,0.0987 7.328,0.25914 7.68,0.13005 0.352,-0.12907 2.008,-0.34233 3.68,-0.47392 z M 200.1401,233.73148 c 0.74099,-0.39448 1.74905,-0.71724 2.24012,-0.71724 0.76429,0 4.33769,-0.68436 5.85263,-1.12087 0.264,-0.0761 1.56,-0.37197 2.88,-0.65755 1.32,-0.28558 2.55084,-0.64369 2.7352,-0.7958 0.18435,-0.15212 1.12035,-0.41673 2.08,-0.58803 0.95964,-0.17129 2.3208,-0.47833 3.0248,-0.6823 2.48141,-0.71894 5.13202,-1.26219 6.1906,-1.26878 0.58883,-0.004 1.45283,-0.27694 1.92,-0.60728 0.52688,-0.37255 1.43678,-0.61133 2.39631,-0.62886 0.92642,-0.0169 2.2624,-0.35581 3.33065,-0.84488 1.00706,-0.46104 2.04705,-0.73305 2.38845,-0.6247 0.33259,0.10556 0.77779,0.0549 0.98935,-0.11266 0.21155,-0.16752 1.07648,-0.37861 1.92206,-0.46909 0.85345,-0.0913 1.70761,-0.38791 1.92,-0.66667 0.23402,-0.30717 1.03724,-0.55178 2.0685,-0.62993 0.92726,-0.0703 1.77926,-0.22111 1.89334,-0.33519 0.11407,-0.11407 0.53236,-0.20741 0.92952,-0.20741 0.92183,0 2.69122,-1.47531 2.69122,-2.24393 0,-0.32288 -0.504,-1.24732 -1.12,-2.05433 -0.616,-0.807 -1.12,-1.57655 -1.12,-1.7101 0,-0.13355 -0.648,-0.91907 -1.44,-1.74559 -0.792,-0.82653 -1.44,-1.77091 -1.44,-2.09863 0,-0.32772 -0.36747,-0.94108 -0.8166,-1.36301 -0.44913,-0.42194 -1.10272,-1.414 -1.45244,-2.20459 -0.34971,-0.79058 -0.73824,-1.51457 -0.8634,-1.60886 -0.87823,-0.66165 -4.54756,-8.80317 -4.54756,-10.09015 0,-0.99758 -1.7671,-2.40081 -3.02336,-2.40081 -0.99108,0 -1.42531,0.2787 -3.09873,1.9889 -1.07038,1.0939 -2.06899,2.31201 -2.21913,2.70692 -0.15015,0.39491 -0.84267,1.00864 -1.53894,1.36385 -0.69627,0.35522 -1.59817,1.1171 -2.00423,1.69309 -1.37923,1.95642 -6.56655,7.3551 -7.59707,7.90661 -0.37205,0.19912 -0.96633,0.93025 -1.32063,1.62474 -0.3543,0.69448 -1.07342,1.48467 -1.59803,1.75596 -0.52462,0.27129 -1.20648,0.88625 -1.51526,1.36659 -0.30877,0.48034 -1.31813,1.57179 -2.24301,2.42545 -0.92489,0.85366 -1.68161,1.72777 -1.68161,1.94245 0,0.21469 -0.53791,0.81224 -1.19536,1.32789 -0.65745,0.51566 -1.48545,1.23628 -1.84,1.6014 -0.35455,0.36511 -0.89181,0.75474 -1.19391,0.86584 -0.3021,0.11109 -1.00257,1.00518 -1.55659,1.98685 -0.55647,0.98601 -1.4092,1.99269 -1.90523,2.2492 -1.19048,0.61562 -3.34662,6.40864 -2.3255,6.40158 1.28996,-0.009 2.26777,-0.23174 3.20384,-0.73008 z m 237.46154,0.38462 c 0.39117,-0.27398 0.71121,-0.70063 0.71121,-0.94811 0,-0.24748 -1.512,-1.96931 -3.36,-3.82629 -1.848,-1.85698 -3.36,-3.45909 -3.36,-3.56025 0,-0.10115 -1.57013,-1.79116 -3.48917,-3.75556 -1.91904,-1.96441 -3.97104,-4.17689 -4.56,-4.91663 -0.58896,-0.73974 -1.35883,-1.44381 -1.71083,-1.5646 -0.93652,-0.32138 -2.72,-2.31542 -2.72,-3.04112 0,-0.37476 -0.32508,-0.74873 -0.81165,-0.93373 -0.44641,-0.16972 -1.63441,-1.19855 -2.64,-2.28629 -1.00559,-1.08773 -2.59799,-2.7813 -3.53866,-3.76349 -0.94067,-0.98218 -1.83556,-2.10572 -1.98864,-2.49675 -0.15309,-0.39103 -0.77001,-0.91639 -1.37094,-1.16748 -0.69137,-0.28887 -1.36279,-0.93724 -1.82833,-1.76556 -0.40464,-0.71997 -0.97835,-1.38604 -1.27489,-1.48016 -0.29655,-0.0941 -1.22941,-1.03169 -2.07302,-2.08348 -1.57237,-1.96039 -2.04124,-2.17714 -3.247,-1.50102 -1.11785,0.62682 -3.30687,4.02227 -3.30687,5.12937 0,0.27147 -0.20462,0.69819 -0.4547,0.94827 -0.25008,0.25009 -0.61389,1.04589 -0.80846,1.76846 -0.19456,0.72257 -0.54351,1.50351 -0.77542,1.73543 -0.23192,0.23192 -0.66606,1.15746 -0.96476,2.05676 -0.29871,0.89931 -0.82515,1.89036 -1.16988,2.20233 -0.34473,0.31198 -0.62678,0.69579 -0.62678,0.85292 0,0.15712 -0.34356,0.60408 -0.76347,0.99323 -0.4199,0.38916 -1.00144,1.27714 -1.29231,1.97329 -0.29087,0.69615 -0.99132,1.70626 -1.55654,2.2447 -0.56523,0.53844 -1.31568,1.47454 -1.66768,2.08022 -0.352,0.60568 -0.88148,1.46628 -1.17661,1.91246 -0.73169,1.10612 -0.71011,2.32382 0.0585,3.30094 0.55549,0.7062 0.97543,0.84395 3.12,1.02348 1.36296,0.1141 2.76611,0.32438 3.11811,0.46728 0.352,0.14291 1.072,0.44545 1.6,0.67231 0.528,0.22686 1.68,0.52443 2.56,0.66126 1.45055,0.22556 3.20072,0.63693 8.96,2.10604 1.056,0.26938 2.496,0.55422 3.2,0.633 1.27413,0.14258 1.54744,0.22689 3.68,1.13527 0.616,0.26239 2.128,0.65621 3.36,0.87515 1.232,0.21895 3.104,0.65876 4.16,0.97738 1.056,0.31861 2.496,0.67764 3.2,0.79784 0.704,0.1202 1.424,0.33143 1.6,0.4694 0.176,0.13797 1.976,0.57136 4,0.96309 2.024,0.39173 3.82457,0.83019 4.00128,0.97436 0.31961,0.26076 1.67885,0.48549 3.52751,0.58321 0.53284,0.0282 1.28884,-0.17295 1.68,-0.44693 z m -26.04872,-56.05281 c 1.07796,-0.26824 2.17593,-0.66769 2.43993,-0.88766 0.264,-0.21996 1.62435,-0.56561 3.02301,-0.76809 1.39865,-0.20249 2.76665,-0.56732 3.04,-0.81074 0.27334,-0.24342 1.64899,-0.61445 3.05699,-0.8245 1.408,-0.21006 2.92,-0.57554 3.36,-0.81218 0.84654,-0.4553 3.66054,-1.21739 6.93143,-1.87717 1.08429,-0.21872 2.32323,-0.62818 2.75322,-0.90991 0.42998,-0.28174 1.34283,-0.60561 2.02856,-0.71973 1.42231,-0.23669 2.58285,-0.61564 4.5233,-1.47695 0.74608,-0.33117 1.65323,-0.60212 2.01589,-0.60212 0.36266,0 1.06501,-0.20976 1.56078,-0.46613 0.49578,-0.25638 1.77515,-0.60685 2.84306,-0.77883 1.06791,-0.17198 2.30864,-0.55316 2.75719,-0.84706 0.44855,-0.2939 1.55836,-0.69942 2.46625,-0.90117 2.09093,-0.46463 2.68552,-1.26003 1.60486,-2.14686 -0.41549,-0.34097 -0.96441,-0.61995 -1.21981,-0.61995 -0.2554,0 -1.21145,-0.34923 -2.12455,-0.77607 -0.9131,-0.42684 -2.59618,-0.95306 -3.74018,-1.16937 -1.144,-0.21632 -2.36404,-0.58709 -2.71121,-0.82393 -0.34716,-0.23685 -0.91278,-0.43063 -1.25693,-0.43063 -0.724,0 -6.36704,-1.70952 -8.57119,-2.59659 -0.82462,-0.33188 -1.80511,-0.60341 -2.17886,-0.60341 -0.37374,0 -1.95856,-0.432 -3.52181,-0.96 -1.56326,-0.528 -3.07251,-0.96 -3.35389,-0.96 -0.28139,0 -1.09172,-0.29595 -1.80075,-0.65767 -0.70902,-0.36172 -2.03529,-0.74436 -2.94725,-0.85031 -0.91196,-0.10595 -1.94611,-0.37281 -2.29811,-0.59303 -0.352,-0.22021 -1.44697,-0.56341 -2.43327,-0.76267 -0.98629,-0.19926 -2.49829,-0.62944 -3.36,-0.95596 -0.8617,-0.32651 -2.683,-0.69761 -4.04732,-0.82466 -2.25495,-0.20999 -2.51713,-0.30727 -2.88243,-1.06944 -1.06691,-2.22603 -4.36687,-0.4366 -3.49445,1.8949 0.7249,1.93727 1.10284,8.39603 0.95528,16.32512 -0.13206,7.09645 -0.2252,8.26647 -0.7179,9.01842 -0.84023,1.28235 -0.35036,3.1018 1.02087,3.79167 0.97986,0.49297 1.10097,0.48067 2.67287,-0.27162 0.90557,-0.43339 2.52846,-1.00746 3.60642,-1.2757 z m -183.1278,0.95095 c 0.33304,-0.87113 0.29527,-1.4606 -0.31265,-4.88 -0.43032,-2.42048 -0.43692,-18.39502 -0.009,-21.88393 0.32226,-2.62763 0.30149,-2.90751 -0.27301,-3.68 -0.83442,-1.12198 -1.80956,-1.2048 -3.22314,-0.27374 -1.31928,0.86894 -2.52516,1.25424 -4.30513,1.37556 -0.66589,0.0454 -1.57658,0.32226 -2.02377,0.61527 -0.93926,0.61542 -1.39645,0.74305 -4.44554,1.24101 -1.232,0.20121 -2.456,0.50578 -2.72,0.67683 -0.264,0.17105 -0.624,0.34263 -0.8,0.38129 -0.176,0.0387 -0.62605,0.13899 -1.00011,0.22295 -0.37406,0.084 -1.38206,0.44128 -2.24,0.79405 -0.85794,0.35277 -2.35189,0.81535 -3.31989,1.02796 -0.968,0.21261 -1.928,0.51938 -2.13333,0.68171 -0.20533,0.16232 -1.35733,0.44422 -2.56,0.62644 -1.20267,0.18222 -2.47904,0.51714 -2.83638,0.74427 -0.35734,0.22714 -1.50934,0.58915 -2.56,0.80448 -1.05066,0.21534 -2.19829,0.52093 -2.55029,0.6791 -1.19875,0.53866 -3.83765,1.23981 -4.67932,1.24329 -0.46163,0.002 -1.46963,0.26843 -2.24,0.59229 -0.77037,0.32386 -3.02068,1.21651 -5.00068,1.98367 -3.77635,1.46316 -4.21038,1.89592 -3.00005,2.99125 0.32997,0.29863 0.72597,0.51408 0.88,0.4788 0.28871,-0.0661 0.75463,0.0845 2.68005,0.86667 0.616,0.25023 1.87024,0.5932 2.78719,0.76216 0.91695,0.16896 1.92495,0.4455 2.24,0.61455 0.31505,0.16904 0.86081,0.41161 1.21281,0.53904 0.65509,0.23716 0.78681,0.26743 2.72,0.62509 0.616,0.11397 1.264,0.31977 1.44,0.45735 0.176,0.13757 1.112,0.43081 2.08,0.65165 0.968,0.22083 2.41319,0.66213 3.21154,0.98067 0.79834,0.31853 2.45434,0.75564 3.68,0.97135 1.22565,0.2157 2.36526,0.51295 2.53246,0.66055 0.1672,0.1476 0.5992,0.26926 0.96,0.27034 0.3608,0.001 1.06699,0.21632 1.56931,0.4783 0.50231,0.26199 1.03738,0.39965 1.18902,0.30593 0.15165,-0.0937 0.82066,0.10261 1.4867,0.43629 1.38746,0.69512 2.6832,1.06293 4.16304,1.18176 0.56764,0.0456 1.64445,0.40205 2.39291,0.79217 0.74846,0.39012 2.05007,0.75059 2.89247,0.80103 0.8424,0.0505 1.70959,0.2327 1.92709,0.40499 0.63029,0.4993 2.55046,1.28839 3.59546,1.47756 0.528,0.0956 1.824,0.38361 2.88,0.64007 2.87936,0.69928 3.32375,0.65618 3.71227,-0.36007 z m -49.15227,-11.92 c 0.10878,-0.176 0.0453,-0.32 -0.14111,-0.32 -0.18639,0 -0.33889,0.144 -0.33889,0.32 0,0.176 0.0635,0.32 0.14112,0.32 0.0776,0 0.23011,-0.144 0.33888,-0.32 z m 2.4,-6.86109 c 0,-0.33776 -0.61411,-0.47966 -0.79677,-0.18411 -0.11055,0.17887 0.0235,0.32522 0.29789,0.32522 0.27438,0 0.49888,-0.0635 0.49888,-0.14111 z m 5.67334,-1.97222 c -0.10634,-0.10634 -0.38234,-0.1177 -0.61334,-0.0253 -0.25527,0.10216 -0.17945,0.17798 0.19334,0.19334 0.33733,0.0139 0.52633,-0.0617 0.42,-0.16807 z m 214.94468,-25.68416 c 0.26095,-0.50463 1.48536,-1.8315 2.72092,-2.9486 1.34701,-1.21788 2.44053,-2.51614 2.73117,-3.24251 0.29952,-0.74858 0.69965,-1.21529 1.0473,-1.22158 0.7786,-0.0141 1.41827,-0.55453 2.80211,-2.36746 0.65415,-0.85698 2.90187,-3.26435 4.99492,-5.34972 2.09306,-2.08536 3.80556,-4.00707 3.80556,-4.27046 0,-0.2634 0.63481,-0.7773 1.41069,-1.14201 0.84759,-0.39841 1.48516,-0.94194 1.59723,-1.36164 0.21095,-0.79003 6.58912,-7.45138 7.9788,-8.33305 0.49871,-0.31639 1.10239,-1.04352 1.34152,-1.61584 0.48173,-1.15297 0.94607,-1.60962 2.46502,-2.42424 1.19546,-0.64113 2.05175,-1.72307 2.34701,-2.9655 0.19033,-0.800891 0.0836,-0.937071 -1.18556,-1.512981 -1.79854,-0.8161 -2.54616,-0.806 -3.63324,0.0491 -0.69709,0.54833 -1.51414,0.74361 -3.8506,0.92033 -1.74851,0.13224 -3.40598,0.448481 -4.03832,0.770501 -0.5899,0.30041 -1.91795,0.66978 -2.95122,0.82084 -1.22064,0.17844 -2.09365,0.5054 -2.49246,0.93348 -0.42823,0.45965 -1.01329,0.65884 -1.93513,0.65884 -1.95097,0 -5.43114,0.66502 -6.23687,1.1918 -0.38672,0.25283 -0.81872,0.46644 -0.96,0.47469 -0.14128,0.008 -0.40087,0.0551 -0.57687,0.10417 -0.176,0.0491 -1.256,0.26617 -2.4,0.48248 -3.19141,0.60346 -8.01526,1.80378 -9.44,2.34897 -0.704,0.26939 -1.7912,0.49612 -2.416,0.50384 -0.6248,0.008 -1.31087,0.18892 -1.52461,0.40265 -0.21373,0.21373 -0.85453,0.42298 -1.424,0.46499 -2.33956,0.1726 -5.37412,1.14713 -6.31823,2.02906 -1.28379,1.19924 -1.21007,2.10303 0.32284,3.95806 0.704,0.85194 1.28,1.66759 1.28,1.81257 0,0.14497 0.252,0.3465 0.56,0.44784 0.308,0.10133 0.90614,1.01104 1.32921,2.02156 0.70533,1.68476 1.15079,2.30658 3.10631,4.3362 0.37154,0.38562 0.78496,1.06112 0.9187,1.50112 0.35002,1.15149 2.48015,5.12 2.74821,5.12 0.12449,0 0.32502,0.54 0.44563,1.2 0.1206,0.66 0.45705,1.56 0.74766,2 0.29061,0.44 0.74796,1.44467 1.01633,2.23259 0.32732,0.961 0.84588,1.67206 1.57527,2.16 1.38748,0.92821 1.51857,0.91629 2.0907,-0.19008 z m -169.68739,0.25039 c 0.35671,-0.1909 0.99515,-1.0909 1.41875,-2 0.42361,-0.90909 1.0583,-2.15465 1.41041,-2.76791 0.35212,-0.61325 0.64021,-1.42362 0.64021,-1.80082 0,-0.37719 0.216,-0.86507 0.48,-1.08417 0.264,-0.2191 0.48,-0.56331 0.48,-0.7649 0,-0.20159 0.38966,-0.93996 0.86591,-1.64082 0.47625,-0.70085 1.49379,-2.49828 2.26119,-3.99428 0.7674,-1.496 1.78887,-3.152 2.26995,-3.68 0.48107,-0.528 1.08354,-1.392 1.33881,-1.92 0.25528,-0.528 0.70092,-1.1375 0.99031,-1.35445 1.21162,-0.90831 2.51383,-3.37881 2.51383,-4.76915 0,-1.5826 -0.23789,-1.77497 -2.88,-2.32895 -0.968,-0.20296 -2.552,-0.6379 -3.52,-0.96652 -0.968,-0.32862 -2.56772,-0.68265 -3.55493,-0.78671 -1.61817,-0.17058 -3.09164,-0.61552 -4.92507,-1.48718 -0.352,-0.16736 -1.45869,-0.36748 -2.4593,-0.44472 -1.00062,-0.0773 -2.17941,-0.37639 -2.61953,-0.66477 -0.44012,-0.28838 -1.85343,-0.67019 -3.14069,-0.84847 -1.28726,-0.17828 -2.50273,-0.45866 -2.70104,-0.62306 -0.1983,-0.16441 -1.6383,-0.44899 -3.2,-0.63241 -3.96813,-0.46605 -4.21128,-0.53475 -4.43967,-1.25435 -0.17771,-0.55991 -0.4882,-0.64013 -2.50133,-0.64629 -1.59761,-0.005 -2.7257,-0.20089 -3.69966,-0.64281 -0.77067,-0.34968 -1.99467,-0.715961 -2.72,-0.813961 -2.37758,-0.32124 -4.50742,-0.85963 -5.14998,-1.30182 -1.0222,-0.70345 -3.38509,-0.5462 -4.43659,0.29525 -0.81406,0.65144 -0.87869,0.83879 -0.62589,1.814361 0.20508,0.79145 0.60506,1.25561 1.46779,1.70333 0.65224,0.33848 1.18589,0.78626 1.18589,0.99506 0,0.2088 0.42017,0.62783 0.93371,0.93119 0.51354,0.30335 1.30771,1.0184 1.76482,1.58899 0.92831,1.15876 1.24185,1.50719 1.84615,2.05161 0.22842,0.2058 1.85532,1.91771 3.61532,3.80425 1.76,1.88654 5.81433,6.11017 9.00962,9.38583 3.19529,3.27566 6.50729,6.80423 7.36,7.84126 2.78112,3.38229 8.83946,9.15449 9.60829,9.15449 0.25529,0 0.75602,-0.15619 1.11272,-0.3471 z m 30.02937,-39.296561 c 1.32,-0.85907 2.7491,-1.93869 3.17578,-2.39915 0.42668,-0.46045 1.02506,-0.83719 1.32972,-0.83719 0.48851,0 1.99237,-1.07271 3.9745,-2.83502 0.352,-0.31296 1.26974,-0.81704 2.03942,-1.12018 0.76968,-0.30314 2.06453,-0.90523 2.87745,-1.33798 0.81292,-0.43275 1.60236,-0.78682 1.7543,-0.78682 0.15195,0 1.78091,-0.73117 3.61991,-1.62482 2.55415,-1.24118 3.41928,-1.82379 3.66402,-2.46751 0.49919,-1.31295 0.0848,-2.20572 -1.61151,-3.47216 -0.86088,-0.64271 -1.73246,-1.47163 -1.93685,-1.84204 -0.20438,-0.37041 -0.94168,-1.07107 -1.63845,-1.55703 -0.69676,-0.48596 -1.40107,-1.23662 -1.56514,-1.66814 -0.16406,-0.43152 -0.84388,-1.13038 -1.51072,-1.55302 -0.66684,-0.42265 -1.9022,-1.50798 -2.74525,-2.41186 -0.84306,-0.90388 -1.65411,-1.64342 -1.80233,-1.64342 -0.14823,0 -1.25846,-1.07837 -2.46718,-2.39637 -1.20872,-1.318 -2.37435,-2.398 -2.59029,-2.4 -0.21595,-0.002 -0.62483,-0.35802 -0.90863,-0.79115 -0.2838,-0.43314 -0.79112,-0.87484 -1.12738,-0.98157 -0.33625,-0.10672 -0.61137,-0.35607 -0.61137,-0.55411 0,-0.52689 -9.55899,-9.83705 -10.44636,-10.17443 -0.4145,-0.15759 -0.75364,-0.50278 -0.75364,-0.76707 0,-0.2643 -0.39112,-0.73587 -0.86916,-1.04792 -0.47804,-0.31206 -1.8254,-1.5555 -2.99412,-2.76319 -1.90851,-1.97216 -2.19444,-2.15863 -2.80706,-1.83077 -0.37516,0.20078 -0.77428,0.73233 -0.88695,1.18123 -0.24084,0.95958 0.0969,4.25183 0.48672,4.74427 0.14849,0.18759 0.42599,1.20508 0.61667,2.26108 0.45043,2.49453 0.52711,2.81137 1.27781,5.28 0.34789,1.144 0.72948,2.656 0.84798,3.36 0.1185,0.704 0.39875,1.568 0.62277,1.92 0.22403,0.352 0.50882,1.432 0.63289,2.4 0.25699,2.00514 0.81432,4.1467 1.21954,4.68612 0.15127,0.20136 0.3594,1.13736 0.4625,2.08 0.1031,0.94263 0.44192,2.57788 0.75294,3.63388 0.64257,2.18175 1.89155,7.60865 2.24623,9.76 0.22336,1.35485 0.68453,2.85496 1.32808,4.32 0.15462,0.352 0.33827,1.144 0.40811,1.76 0.39545,3.48782 0.45624,3.68078 1.43527,4.55555 0.54443,0.48645 1.23961,0.88407 1.54483,0.8836 0.30522,-4.7e-4 1.63495,-0.70373 2.95495,-1.56281 z m 110.99133,1.10883 c 0.67687,-0.35003 1.10928,-1.06898 1.87648,-3.12 0.54832,-1.46585 1.07099,-3.24117 1.16149,-3.94517 0.30326,-2.35892 1.05065,-5.75349 1.41486,-6.42611 0.33384,-0.61656 1.07415,-3.75475 2.18302,-9.25389 0.24843,-1.232 0.58737,-2.528 0.75321,-2.88 0.43533,-0.92399 0.97961,-3.8331 0.97961,-5.23586 0,-0.6624 0.3491,-1.92803 0.77579,-2.8125 0.42668,-0.88448 0.8698,-2.17143 0.98469,-2.85989 0.1149,-0.68846 0.49618,-1.9506 0.8473,-2.80474 0.35112,-0.85415 0.76331,-2.76371 0.91598,-4.24346 0.19209,-1.86186 0.48019,-2.975 0.93544,-3.61435 0.71293,-1.00122 0.65084,-2.27086 -0.19312,-3.9492 -0.51466,-1.02346 -0.36589,-0.97924 -1.71383,-0.50935 -1.42731,0.49756 -2.1624,1.15374 -2.90807,2.59587 -0.43811,0.84731 -1.0048,1.35895 -1.90335,1.71848 -0.70373,0.28158 -1.44268,0.81864 -1.64211,1.19348 -0.59313,1.11479 -2.27051,3.15632 -3.29872,4.01484 -0.528,0.44086 -1.66457,1.49122 -2.52572,2.33412 -0.86114,0.84291 -1.74834,1.53256 -1.97155,1.53256 -0.50189,0 -2.06273,1.81302 -2.06273,2.396 0,0.2348 -0.648,0.7406 -1.44,1.124 -0.792,0.3834 -1.44,0.84088 -1.44,1.01662 0,0.46914 -7.45322,7.69368 -8.56855,8.30566 -0.54861,0.30101 -1.19817,1.08053 -1.53324,1.84 -0.32745,0.74217 -0.80217,1.31772 -1.08689,1.31772 -0.52547,0 -2.95428,1.82996 -3.18062,2.39641 -0.21964,0.54968 -2.99485,3.02717 -3.60946,3.22224 -1.4821,0.4704 0.21135,3.08617 2.40234,3.71078 0.73503,0.20954 1.55242,0.5443 1.81642,0.7439 0.72139,0.54543 2.19471,1.12667 2.85587,1.12667 0.32217,0 0.76286,0.21339 0.97932,0.4742 0.3308,0.3986 4.78325,2.7258 5.21504,2.7258 0.0771,0 0.67072,0.5003 1.31907,1.11177 0.64835,0.61148 2.26609,1.65548 3.59497,2.32 1.32887,0.66453 2.5694,1.49623 2.75672,1.84823 0.39515,0.74255 1.11982,1.31628 2.93035,2.32 1.53812,0.852691 1.296,0.82572 2.37999,0.26517 z m -42.19133,-18.74517 c 0.80445,-0.80446 0.83484,-2.38406 0.0566,-2.94186 -0.44155,-0.31647 -0.67646,-1.18432 -0.9661,-3.56909 -0.21048,-1.73302 -0.65194,-3.74902 -0.98102,-4.48 -0.32908,-0.73098 -0.70017,-1.97705 -0.82465,-2.76905 -0.12448,-0.792 -0.40735,-1.728 -0.62861,-2.08 -0.22126,-0.352 -0.50528,-1.36 -0.63115,-2.24 -0.12587,-0.88 -0.49444,-2.176 -0.81903,-2.88 -0.3246,-0.704 -0.68421,-1.784 -0.79913,-2.4 -0.11493,-0.616 -0.54779,-2.128 -0.96192,-3.36 -0.41414,-1.232 -0.84758,-2.744 -0.9632,-3.36 -0.11563,-0.616 -0.4675,-1.696 -0.78193,-2.4 -0.31443,-0.704 -0.75824,-2.072 -0.98624,-3.04 -0.228,-0.968 -0.60784,-2.22338 -0.84408,-2.78972 -0.23624,-0.56635 -0.42953,-1.40182 -0.42953,-1.85661 0,-0.45478 -0.27579,-1.35941 -0.61287,-2.01027 -0.33708,-0.65087 -0.77961,-2.1194 -0.9834,-3.2634 -0.20378,-1.144 -0.55321,-2.368 -0.77651,-2.72 -0.22329,-0.352 -0.5035,-1.036 -0.6227,-1.52 -0.19432,-0.78906 -0.35816,-0.88 -1.58539,-0.88 -1.34781,0 -1.37645,0.0232 -1.87924,1.52 -0.28081,0.836 -0.73263,2.168 -1.00405,2.96 -0.27142,0.792 -0.65663,2.088 -0.85602,2.88 -0.81041,3.21905 -1.06507,4.08968 -1.7784,6.08 -0.41001,1.144 -0.83603,2.64105 -0.94672,3.32678 -0.11069,0.68573 -0.39359,1.54973 -0.62867,1.92 -0.23508,0.37027 -0.59289,1.49192 -0.79512,2.49255 -0.20224,1.00063 -0.70182,2.90223 -1.11018,4.22579 -0.40836,1.32356 -0.66497,2.48398 -0.57023,2.57871 0.0947,0.0947 -0.0642,0.43354 -0.35324,0.7529 -0.28902,0.31936 -0.59743,1.14824 -0.68537,1.84196 -0.41077,3.24046 -0.59991,4.00996 -1.04712,4.26023 -0.29575,0.16551 -0.64621,1.24239 -0.90965,2.79516 -0.45971,2.70968 -0.9885,4.60428 -1.64278,5.88592 -0.22462,0.44 -0.40929,1.24858 -0.41037,1.79684 -10e-4,0.54827 -0.28997,1.36298 -0.64197,1.81048 -0.7778,0.9888 -0.82617,2.37657 -0.1104,3.16748 0.62141,0.68666 2.96002,0.80755 3.58245,0.1852 0.30538,-0.30533 3.10373,-0.39833 11.824,-0.39292 9.92912,0.006 11.5705,0.076 12.54395,0.53389 1.49051,0.7011 1.80543,0.6936 2.56,-0.061 z"
       style="fill:#ffcc00"
       id="path1-8"
       sodipodi:nodetypes="cssssssssssscssssssssssssssssssssssssssssssssssssssssscsssssssssssssssssssssssssssssssssssssssssssssssssssssssssssssssssssssssssssssssssssssssssssssssssssssssssssssssssssssssssssssssssssssscssssssssssssssssssssssssssssssssssscsssssssssssssssssssssssssssssssssssssssssssssssssssssssssssssssssssssssssssssssssssssssssssssssssssssscsssssssssssssscsssssssssssssssssssssssssssssssssssssssssssssscssscsssssssssssssssssssssssssssssssscssssscssssssssssssssssssssssssssssssssssssssssssssssssssssssssssssssssssssssssssssssssssssssssssssssssssssssssssssssssssssssssssssssssscssscsss" /><path
       d="m 245.36533,284.74899 c 0.28494,0.38325 0.72048,0.69109 0.96785,0.68409 0.24738,-0.007 1.92574,-1.56712 3.72969,-3.46693 1.80393,-1.8998 3.36262,-3.45653 3.46374,-3.4594 0.10113,-0.003 1.74601,-1.62019 3.65532,-3.59405 1.90932,-1.97386 4.06284,-4.08764 4.78563,-4.6973 0.72277,-0.60965 1.40478,-1.39914 1.51556,-1.75442 0.29475,-0.94524 2.23752,-2.78443 2.96293,-2.80496 0.37461,-0.0106 0.73923,-0.34614 0.91039,-0.83775 0.15701,-0.45103 1.15182,-1.66767 2.21067,-2.70364 1.05884,-1.03596 2.70666,-2.67565 3.66185,-3.64374 0.95516,-0.96808 2.05293,-1.89441 2.43948,-2.0585 0.38653,-0.16407 0.89422,-0.79562 1.12821,-1.40342 0.26919,-0.69927 0.89831,-1.38877 1.71312,-1.87756 0.70822,-0.42485 1.35779,-1.01718 1.44349,-1.31627 0.0857,-0.29909 0.99649,-1.25811 2.02398,-2.13114 1.91511,-1.62722 2.11851,-2.10204 1.40854,-3.28818 -0.6582,-1.09966 -4.11424,-3.19172 -5.2209,-3.16039 -0.27136,0.008 -0.70369,-0.18479 -0.96075,-0.42769 -0.25706,-0.2429 -1.06284,-0.58404 -1.79062,-0.7581 -0.72779,-0.17403 -1.51829,-0.50074 -1.75669,-0.726 -0.23839,-0.22526 -1.17584,-0.63303 -2.08323,-0.90617 -0.90741,-0.27313 -1.91296,-0.77132 -2.23456,-1.10709 -0.3216,-0.33576 -0.71325,-0.60684 -0.87031,-0.60239 -0.15705,0.004 -0.61356,-0.32633 -1.01444,-0.73506 -0.40089,-0.40872 -1.30496,-0.9649 -2.00906,-1.23595 -0.70411,-0.27105 -1.73363,-0.94265 -2.28785,-1.4924 -0.55422,-0.54977 -1.51118,-1.27343 -2.12658,-1.60815 -0.6154,-0.33472 -1.49064,-0.83963 -1.94499,-1.12202 -1.12638,-0.70009 -2.34299,-0.64407 -3.29796,0.15189 -0.6902,0.57525 -0.81601,0.99891 -0.93479,3.14771 -0.0755,1.36565 -0.24597,2.77418 -0.37885,3.13008 -0.13289,0.35591 -0.41494,1.08418 -0.62677,1.61839 -0.21182,0.53421 -0.47668,1.69416 -0.58856,2.57768 -0.18441,1.45635 -0.5461,3.21746 -1.85164,9.01601 -0.23939,1.0632 -0.48337,2.51068 -0.5422,3.21663 -0.10647,1.27766 -0.18301,1.55324 -1.03068,3.71066 -0.24485,0.62317 -0.59573,2.14571 -0.77972,3.38341 -0.184,1.23771 -0.57067,3.1214 -0.85927,4.18599 -0.2886,1.0646 -0.60674,2.51418 -0.70696,3.2213 -0.10024,0.70712 -0.29101,1.43281 -0.42395,1.61265 -0.13293,0.17983 -0.51521,1.99137 -0.84951,4.02564 -0.3343,2.03427 -0.72163,3.84653 -0.86075,4.02726 -0.25161,0.32685 -0.43778,1.69191 -0.48315,3.5426 -0.0131,0.53342 0.20939,1.28342 0.49429,1.66668 z"
       style="fill:#ffcc00"
       id="path1" /><path
       d="m 314.76517,305.75023 c 0.42975,0.2083 0.95823,0.28015 1.1744,0.15968 0.21617,-0.12048 0.98412,-2.27944 1.70655,-4.7977 0.72241,-2.51824 1.38578,-4.61892 1.47414,-4.66817 0.0883,-0.0494 0.8002,-2.24349 1.58187,-4.87609 0.78168,-2.6326 1.71532,-5.50211 2.07477,-6.37669 0.35944,-0.87457 0.59966,-1.88982 0.53381,-2.2561 -0.1752,-0.9745 0.69836,-3.50312 1.33226,-3.8564 0.32735,-0.18244 0.49576,-0.64846 0.42048,-1.16354 -0.0691,-0.47256 0.25127,-2.01114 0.71186,-3.41906 0.4606,-1.40791 1.1647,-3.62334 1.56471,-4.92318 0.39999,-1.29982 0.94575,-2.62847 1.2128,-2.95256 0.26704,-0.32406 0.4256,-1.11871 0.35238,-1.76586 -0.0842,-0.74455 0.15525,-1.64668 0.65215,-2.45657 0.4319,-0.70394 0.73441,-1.52934 0.67227,-1.8342 -0.0621,-0.30485 0.30268,-1.57614 0.81072,-2.82506 0.94694,-2.32783 0.90801,-2.84292 -0.26957,-3.56699 -1.09172,-0.67129 -5.12332,-0.93041 -6.09037,-0.39145 -0.23698,0.13244 -0.70948,0.16115 -1.04967,0.0645 -0.34019,-0.0967 -1.21244,-0.0271 -1.93832,0.15473 -0.72589,0.18182 -1.57791,0.2572 -1.89341,0.16753 -0.31548,-0.0897 -1.33528,-0.0183 -2.26624,0.15856 -0.93096,0.17689 -2.05293,0.19951 -2.49326,0.0503 -0.44033,-0.14925 -0.91291,-0.20877 -1.05016,-0.13227 -0.13744,0.0761 -0.69491,-0.006 -1.23926,-0.18337 -0.54435,-0.17733 -1.6031,-0.25302 -2.35279,-0.16819 -0.74969,0.0848 -1.97302,-0.0353 -2.71851,-0.26686 -0.74549,-0.23161 -1.92851,-0.43141 -2.62894,-0.44403 -0.70042,-0.0126 -1.70992,-0.0561 -2.24334,-0.0967 -1.32239,-0.10064 -2.37556,0.51101 -2.85488,1.65808 -0.34645,0.82901 -0.26234,1.26288 0.62487,3.22357 0.56384,1.24611 1.06326,2.57411 1.1098,2.95115 0.0465,0.37705 0.13278,1.15325 0.19165,1.7249 0.0589,0.57165 0.35978,1.72278 0.66865,2.55808 0.50915,1.37685 1.00183,3.1059 2.52233,8.85183 0.27878,1.05355 0.73099,2.45006 1.0049,3.10336 0.49573,1.18237 0.55514,1.46214 0.79986,3.76716 0.0707,0.66581 0.46275,2.17826 0.87128,3.361 0.40851,1.18275 0.93566,3.03205 1.17144,4.10957 0.23578,1.07753 0.62319,2.51015 0.86093,3.18361 0.23772,0.67347 0.40373,1.40522 0.36889,1.62613 -0.0348,0.2209 0.46288,2.00418 1.10603,3.96284 0.64315,1.95867 1.13672,3.74492 1.09681,3.96948 -0.0722,0.40611 0.39324,1.70281 1.20785,3.36519 0.23477,0.47916 0.77854,1.04158 1.20826,1.24991 z"
       style="fill:#ffcc00"
       id="path1-6" /></g></svg>
